<?xml version="1.0" encoding="utf-8"?>
<!-- Generator: Adobe Illustrator 24.0.0, SVG Export Plug-In . SVG Version: 6.00 Build 0)  -->
<svg version="1.1" id="Capa_1" xmlns="http://www.w3.org/2000/svg" xmlns:xlink="http://www.w3.org/1999/xlink" x="0px" y="0px"
	 viewBox="0 0 500 500" style="enable-background:new 0 0 500 500;" xml:space="preserve">
<style type="text/css">
	.st0{fill:#009FE3;}
	.st1{fill:#E6007E;}
	.st2{fill:#FFED00;}
</style>
<path class="st0" d="M86.76,198.9c-13.04-15.77-19.59-25.11-18.52-29.54c1.07-4.42,9.96-16.5,30.64-33.6
	c91.84-75.94,164.34-26.1,196.22,12.46c53.91,65.2,60.23,134.94-7.78,191.17c-22.08,18.26-38.3,25.77-55,21.28
	c-12.92-3.48-23.24-13.83-38.6-32.41L86.76,198.9z M171.64,360.09c30.34,36.69,33.11,41.48,15.1,61.09l-7.19,7.72
	c-0.27,3.96,5.07,8.99,8.04,8.3c15.85-14.39,28.18-25.17,42.9-37.34c12.32-10.09,37.07-25.83,59.5-44.38
	c26.99-22.32,51.97-50.64,64.61-81.75c21.99-54.78,11.78-110.67-25.03-155.19c-38.26-46.27-95.14-66.52-156.67-44.57
	c-29.74,10.43-56.37,28.91-85.81,53.25c-29.8,24.64-57.32,49.17-85.67,75.56c-2.34,4.3,2.64,9.62,6.9,9.05l8.58-5.33
	c16.46-10.07,24.3-4.16,44.59,20.38L171.64,360.09z"/>
<path class="st1" d="M143.59,182.13c-9.11-18.33-13.37-28.91-11.32-32.98c2.04-4.06,13.46-13.8,37.48-25.75
	C276.46,70.33,335.72,135.34,358,180.14c37.67,75.75,27.96,145.1-51.05,184.39c-25.66,12.76-43.16,16.39-58.4,8.21
	c-11.79-6.33-19.49-18.76-30.22-40.34L143.59,182.13z M189.6,358.39c21.2,42.63,22.82,47.92,0.82,62.92l-8.76,5.88
	c-1.16,3.79,2.9,9.9,5.95,9.91c18.7-10.4,33.16-18.1,50.27-26.61c14.29-7.02,41.97-16.73,68.04-29.69
	c31.36-15.6,62.12-37.5,81.5-64.92c33.87-48.34,36.64-105.09,10.91-156.81c-26.74-53.76-77.52-86.41-142.43-79.03
	c-31.33,3.39-61.47,15.33-95.67,32.34c-34.62,17.22-67,34.84-100.61,54.1c-3.26,3.66,0.39,9.97,4.66,10.38l9.57-3.24
	c18.32-6.06,24.61,1.48,38.79,29.98L189.6,358.39z"/>
<path class="st2" d="M202.42,178.79c-4.73-19.91-6.47-31.19-3.56-34.69c2.91-3.49,16.23-10.4,42.34-16.59
	c115.95-27.51,158.94,49.24,170.5,97.92c19.53,82.32-5.64,147.66-91.49,168.04c-27.88,6.62-45.75,6.18-58.74-5.23
	c-10.05-8.84-14.73-22.68-20.3-46.14L202.42,178.79z M207.29,360.89c10.99,46.32,11.37,51.84-13.46,61.47l-9.87,3.74
	c-1.99,3.43,0.58,10.3,3.55,11c20.57-5.9,36.4-10.12,54.99-14.53c15.51-3.6,44.67-6.78,73-13.51c34.08-8.09,69-22.45,94.09-44.77
	c43.94-39.41,59.49-94.06,46.16-150.26c-13.86-58.42-55.93-101.73-120.82-109.24c-31.29-3.8-63.34,1.01-100.52,9.83
	c-37.62,8.93-73.15,18.76-110.25,29.9c-4,2.82-1.88,9.8,2.18,11.17l10.05-0.98c19.22-1.76,23.63,7.01,30.99,37.99L207.29,360.89z"/>
<path d="M261.66,189.21c0-20.47,0.91-31.84,4.55-34.57c3.64-2.73,18.19-6.37,45.03-6.37c119.17,0,143.28,84.6,143.28,134.64
	c0,84.6-39.58,142.37-127.82,142.37c-28.66,0-45.94-4.55-55.95-18.65c-7.73-10.92-9.1-25.47-9.1-49.58V189.21z M224.36,367.51
	c0,47.61-0.91,53.07-27.29,56.71l-10.46,1.36c-2.73,2.88-1.82,10.16,0.91,11.52c21.38-0.99,37.75-1.44,56.86-1.44
	c15.92,0.07,45.03,3.71,74.14,3.71c35.02,0,72.32-5.91,101.89-21.83C472.25,389.35,500,339.76,500,282
	c0-60.04-30.93-111.89-92.34-134.18c-29.57-10.92-61.86-13.64-100.07-13.64c-38.67,0-75.51,1.36-114.17,3.64
	c-4.55,1.82-4.09,9.1-0.46,11.37l10.01,1.37c19.1,2.73,21.38,12.28,21.38,44.12V367.51z"/>
</svg>
